<svg width="167" height="161" viewBox="0 0 167 161" fill="none" xmlns="http://www.w3.org/2000/svg">
<rect width="167" height="161" fill="white"/>
<path fill-rule="evenodd" clip-rule="evenodd" d="M8.81418 2.18899C11.5844 0.293026 14.9989 -0.411497 18.2926 0.233291C34.3138 3.36968 56.6934 11.9609 68.8175 20.6809C68.8863 20.7305 68.9547 20.7807 69.0226 20.8316C69.4375 21.143 69.8766 21.4686 70.3371 21.8099C76.0562 26.0499 85.079 32.7391 92.1976 45.2857C99.8531 58.7785 104.738 77.821 104.23 106.311L79.1762 105.863C79.6315 80.3445 75.2002 66.1141 70.4071 57.6663C65.9626 49.8328 60.7245 45.9224 55.1643 41.7715C54.8105 41.5074 54.4554 41.2423 54.0991 40.9751C48.101 36.6923 37.0147 31.718 26.2675 28.2387C23.4416 53.8384 25.4805 80.0903 33.2432 100.254C37.7686 112.008 43.9934 121.077 51.6953 127.032C59.2023 132.836 68.8391 136.262 81.5619 135.676C97.8773 134.925 108.709 131.318 116.09 126.283C123.31 121.356 128.314 114.324 131.695 104.562C135.161 94.5555 136.81 81.9691 137.222 66.6095C137.535 54.9529 137.131 42.1686 136.447 28.2601C125.46 30.0722 117.98 32.5228 113.195 34.5612C109.959 35.9395 107.932 37.1384 106.865 37.8455C106.336 38.1956 106.037 38.4287 105.938 38.5085C105.568 38.8472 105.177 39.1633 104.769 39.4553L102.52 41.063L87.9532 20.6604L89.6852 19.4221C89.8437 19.2875 90.0184 19.1425 90.2098 18.9881C90.9163 18.4183 91.8487 17.721 93.0353 16.9352C95.4112 15.3617 98.7861 13.4462 103.381 11.4891C112.573 7.57369 126.561 3.52751 147.109 1.6586C150.494 1.35078 153.858 2.43197 156.43 4.65422C159.003 6.87648 160.563 10.0491 160.753 13.4446C161.821 32.5503 162.714 50.79 162.271 67.2823C161.83 83.7267 160.054 99.2511 155.371 112.773C150.603 126.539 142.734 138.453 130.206 147C117.838 155.439 102.047 159.834 82.7135 160.724C64.4082 161.567 48.8533 156.523 36.375 146.875C24.0915 137.378 15.5375 124.013 9.86076 109.268C-1.40794 79.9984 -2.29701 42.8998 3.55595 10.3193C4.14977 7.01382 6.044 4.08495 8.81418 2.18899Z" fill="#D65649"/>
<path d="M154.884 136.567C148.208 136.567 142.769 142.01 142.769 148.691C142.769 155.373 148.208 160.815 154.884 160.815C161.561 160.815 167 155.373 167 148.691C167 142.01 161.561 136.567 154.884 136.567ZM154.884 138.992C160.252 138.992 164.577 143.32 164.577 148.691C164.577 154.062 160.252 158.39 154.884 158.39C149.517 158.39 145.192 154.062 145.192 148.691C145.192 143.32 149.517 138.992 154.884 138.992ZM150.644 142.629V154.753H153.181V150.396H155.112L157.421 154.753H160.109V154.64L157.421 149.677C157.663 149.555 158.05 149.428 158.292 149.184C158.655 148.939 158.769 148.707 159.011 148.464C159.253 148.102 159.383 147.843 159.504 147.48C159.625 147.117 159.617 146.751 159.617 146.267C159.617 145.661 159.481 145.16 159.238 144.675C159.117 144.313 158.769 143.979 158.405 143.615C157.921 143.253 157.534 142.979 156.929 142.857C156.444 142.735 155.838 142.631 155.111 142.631L150.644 142.629ZM153.294 144.826H155.263C155.869 144.826 156.338 144.916 156.702 145.283C157.065 145.646 157.194 146.041 157.194 146.647C157.194 146.892 157.203 147.125 157.08 147.367C156.959 147.612 156.823 147.852 156.702 147.973C156.58 148.096 156.338 148.195 156.096 148.312C155.854 148.435 155.627 148.463 155.263 148.463H153.294V144.826Z" fill="#D65649"/>
</svg>
